<svg width="602" height="551" viewBox="0 0 602 551" fill="none" xmlns="http://www.w3.org/2000/svg">
<path d="M405.301 15.9181L447.208 56.3535L489.326 284.295H94.2537L405.301 15.9181Z" fill="#FFCF2D"/>
<path d="M447.568 56.0359L405.534 15.4734L412.565 8.16959C422.92 -2.58497 441.575 -1.35708 452.332 8.97407C463.09 19.3264 464.974 37.9775 454.619 48.7321L447.568 56.0359Z" fill="white"/>
<path d="M447.589 56.925L404.645 15.4945L412.12 7.72497C417.16 2.47471 424.338 -0.256271 432.343 0.0189438C440.008 0.294159 447.462 3.38504 452.798 8.50828C458.135 13.6315 461.501 20.9776 462.052 28.6413C462.624 36.6226 460.146 43.9052 455.106 49.1555L447.589 56.925ZM406.424 15.4522L447.547 55.1255L454.154 48.2875C458.96 43.3124 461.29 36.3685 460.76 28.7472C460.231 21.3799 457.012 14.3513 451.888 9.43977C446.763 4.52824 439.627 1.56438 432.279 1.31034C424.656 1.03512 417.816 3.63908 413.031 8.61413L406.424 15.4522Z" fill="#FFCF2D"/>
<path d="M454.598 49.3672C454.429 49.3672 454.281 49.3036 454.154 49.1978L412.099 8.63528C411.845 8.38124 411.845 8.00017 412.078 7.74612C412.332 7.49208 412.734 7.49208 412.967 7.72495L455.022 48.2875C455.276 48.5415 455.276 48.9226 455.043 49.1766C454.937 49.3036 454.768 49.3672 454.598 49.3672Z" fill="#FFCF2D"/>
<path d="M535.828 283.194C535.743 283.194 535.658 283.173 535.574 283.131C535.256 282.983 535.108 282.602 535.256 282.284L594.23 150.773L478.929 10.4559V10.4348C476.748 7.47092 473.55 5.56558 469.908 5.03632C466.266 4.50706 462.645 5.45973 459.723 7.70379L455.022 11.3028C454.746 11.5145 454.344 11.4721 454.132 11.1757C453.921 10.9005 453.963 10.4983 454.259 10.2866L458.96 6.68761C462.158 4.25301 466.118 3.21567 470.099 3.78727C474.08 4.35887 477.574 6.43357 479.945 9.67264L595.712 150.583L595.543 150.943L536.399 282.813C536.294 283.046 536.061 283.194 535.828 283.194Z" fill="#3FB1B5"/>
<path d="M593.086 157.866C596.665 157.866 599.566 154.965 599.566 151.388C599.566 147.81 596.665 144.909 593.086 144.909C589.508 144.909 586.607 147.81 586.607 151.388C586.607 154.965 589.508 157.866 593.086 157.866Z" fill="white"/>
<path d="M593.086 158.501C589.169 158.501 585.971 155.304 585.971 151.388C585.971 147.471 589.169 144.274 593.086 144.274C597.004 144.274 600.201 147.471 600.201 151.388C600.201 155.304 597.004 158.501 593.086 158.501ZM593.086 145.545C589.868 145.545 587.242 148.17 587.242 151.388C587.242 154.606 589.868 157.231 593.086 157.231C596.305 157.231 598.931 154.606 598.931 151.388C598.931 148.17 596.305 145.545 593.086 145.545Z" fill="#FFCF2D"/>
<path d="M519.395 267.824H550.968C560.052 267.824 567.4 275.192 567.4 284.253V284.718H502.942V284.253C502.963 275.192 510.311 267.824 519.395 267.824Z" fill="white"/>
<path d="M568.036 285.354H502.307V284.253C502.328 274.853 509.993 267.189 519.395 267.189H550.968C560.37 267.189 568.036 274.853 568.036 284.253V285.354V285.354ZM503.577 284.083H566.765C566.68 275.446 559.629 268.46 550.968 268.46H519.395C510.756 268.46 503.683 275.446 503.577 284.083Z" fill="#FFCF2D"/>
<path d="M366.444 236.64H166.568C159.051 236.64 152.973 230.565 152.973 223.049V83.282C152.973 75.7666 159.051 69.6906 166.568 69.6906H366.444C373.962 69.6906 380.039 75.7666 380.039 83.282V223.028C380.06 230.543 373.962 236.64 366.444 236.64Z" fill="white"/>
<path d="M366.444 237.276H166.568C158.712 237.276 152.338 230.903 152.338 223.049V83.2821C152.338 75.4279 158.712 69.0556 166.568 69.0556H366.444C374.3 69.0556 380.674 75.4279 380.674 83.2821V223.028C380.696 226.817 379.213 230.395 376.524 233.084C373.835 235.794 370.256 237.276 366.444 237.276ZM166.568 70.3258C159.432 70.3258 153.609 76.1477 153.609 83.2821V223.049C153.609 230.184 159.432 236.005 166.568 236.005H366.444C369.917 236.005 373.178 234.65 375.635 232.195C378.07 229.739 379.425 226.479 379.404 223.028V83.2821C379.404 76.1477 373.581 70.3258 366.444 70.3258H166.568Z" fill="#3FB1B5"/>
<path d="M366.572 223.642H168.622C165.679 223.642 163.307 221.249 163.307 218.328V84.6156C163.307 81.6729 165.7 79.3018 168.622 79.3018H366.572C369.515 79.3018 371.887 81.6941 371.887 84.6156V218.307C371.908 221.249 369.515 223.642 366.572 223.642Z" fill="#66B0F0"/>
<path d="M366.572 224.277H168.622C165.34 224.277 162.672 221.609 162.672 218.328V84.6157C162.672 81.3342 165.34 78.6668 168.622 78.6668H366.572C369.854 78.6668 372.522 81.3342 372.522 84.6157V218.307C372.543 219.895 371.929 221.398 370.807 222.52C369.663 223.642 368.181 224.277 366.572 224.277ZM168.622 79.937C166.039 79.937 163.943 82.0329 163.943 84.6157V218.328C163.943 220.911 166.039 223.007 168.622 223.007H366.572C367.821 223.007 369.007 222.52 369.896 221.63C370.785 220.741 371.251 219.577 371.251 218.328V84.6157C371.251 82.0329 369.155 79.937 366.572 79.937H168.622Z" fill="#66B0F0"/>
<path d="M175.716 92.4278H172.582C171.206 92.4278 170.084 91.3058 170.084 89.9297V86.7965C170.084 85.4204 171.206 84.2984 172.582 84.2984H175.716C177.093 84.2984 178.215 85.4204 178.215 86.7965V89.9297C178.194 91.327 177.093 92.4278 175.716 92.4278ZM172.582 85.5686C171.905 85.5686 171.354 86.1191 171.354 86.7965V89.9297C171.354 90.6072 171.905 91.1576 172.582 91.1576H175.716C176.394 91.1576 176.923 90.6072 176.944 89.9086V86.7965C176.944 86.1191 176.394 85.5686 175.716 85.5686H172.582V85.5686Z" fill="white"/>
<path d="M189.967 92.4278H186.833C185.457 92.4278 184.335 91.3058 184.335 89.9297V86.7965C184.335 85.4204 185.457 84.2984 186.833 84.2984H189.967C191.344 84.2984 192.466 85.4204 192.466 86.7965V89.9297C192.466 91.3058 191.344 92.4278 189.967 92.4278ZM186.833 85.5686C186.156 85.5686 185.605 86.1191 185.605 86.7965V89.9297C185.605 90.6072 186.156 91.1576 186.833 91.1576H189.967C190.645 91.1576 191.196 90.6072 191.196 89.9297V86.7965C191.196 86.1191 190.645 85.5686 189.967 85.5686H186.833Z" fill="white"/>
<path d="M204.219 92.4278H201.085C199.708 92.4278 198.586 91.3058 198.586 89.9297V86.7965C198.586 85.4204 199.708 84.2984 201.085 84.2984H204.219C205.595 84.2984 206.717 85.4204 206.717 86.7965V89.9297C206.717 91.3058 205.595 92.4278 204.219 92.4278ZM201.085 85.5686C200.407 85.5686 199.856 86.1191 199.856 86.7965V89.9297C199.856 90.6072 200.407 91.1576 201.085 91.1576H204.219C204.917 91.1576 205.447 90.6284 205.447 89.9297V86.7965C205.447 86.1191 204.896 85.5686 204.219 85.5686H201.085Z" fill="white"/>
<path d="M308.699 284.295H231.111L246.337 236.641H293.452L308.699 284.295Z" fill="white"/>
<path d="M309.567 284.931H230.243L245.87 236.006H293.918L309.567 284.931ZM231.979 283.66H307.83L292.986 237.276H246.802L231.979 283.66Z" fill="#3FB1B5"/>
<path d="M237.209 265.221L246.336 236.641H293.452L237.209 265.221Z" fill="#3FB1B5"/>
<path d="M355.052 123.781H317.338C313.463 123.781 310.308 120.627 310.308 116.753V92.4067C310.308 88.5325 313.463 85.3781 317.338 85.3781H355.052C358.927 85.3781 362.082 88.5325 362.082 92.4067V116.753C362.082 120.627 358.927 123.781 355.052 123.781ZM317.338 86.6484C314.162 86.6484 311.578 89.2312 311.578 92.4067V116.753C311.578 119.928 314.162 122.511 317.338 122.511H355.052C358.228 122.511 360.812 119.928 360.812 116.753V92.4067C360.812 89.2312 358.228 86.6484 355.052 86.6484H317.338Z" fill="white"/>
<path d="M350.499 95.3284H321.721C321.361 95.3284 321.086 95.0532 321.086 94.6933C321.086 94.3334 321.361 94.0582 321.721 94.0582H350.499C350.859 94.0582 351.134 94.3334 351.134 94.6933C351.134 95.0532 350.859 95.3284 350.499 95.3284Z" fill="white"/>
<path d="M350.499 101.891H321.721C321.361 101.891 321.086 101.616 321.086 101.256C321.086 100.896 321.361 100.621 321.721 100.621H350.499C350.859 100.621 351.134 100.896 351.134 101.256C351.134 101.616 350.859 101.891 350.499 101.891Z" fill="white"/>
<path d="M350.499 108.454H321.721C321.361 108.454 321.086 108.179 321.086 107.819C321.086 107.459 321.361 107.184 321.721 107.184H350.499C350.859 107.184 351.134 107.459 351.134 107.819C351.134 108.179 350.859 108.454 350.499 108.454Z" fill="white"/>
<path d="M350.499 115.017H321.721C321.361 115.017 321.086 114.741 321.086 114.381C321.086 114.022 321.361 113.746 321.721 113.746H350.499C350.859 113.746 351.134 114.022 351.134 114.381C351.134 114.741 350.859 115.017 350.499 115.017Z" fill="white"/>
<path d="M365.47 223.642H215.569L206.781 236.238C196.849 250.465 175.864 250.676 165.658 236.64L112.126 163.031C114.371 165.825 124.641 162.713 134.424 156.277C144.355 149.736 150.771 141.501 148.76 138.452L185.881 185.747L197.252 165.677C200.365 160.363 205.531 156.553 211.545 155.155L250.233 146.963H283.585L320.345 155.071C326.74 156.532 332.161 160.702 335.232 166.482L365.47 223.642Z" fill="white"/>
<path d="M186.071 247.67C177.706 247.67 170.083 243.796 165.149 237.001L111.617 163.391L112.634 162.629C114.434 164.852 123.984 162.396 134.085 155.749C138.786 152.658 142.873 149.08 145.583 145.65C148.039 142.559 149.035 139.998 148.23 138.791L149.268 138.05L185.795 184.604L196.701 165.36C199.898 159.898 205.256 155.96 211.397 154.542L250.169 146.328H283.648L283.711 146.349L320.472 154.457C327.036 155.96 332.627 160.237 335.782 166.186L366.508 224.277H215.886L207.289 236.598C202.439 243.542 194.795 247.586 186.304 247.67C186.24 247.67 186.155 247.67 186.071 247.67ZM114.074 164.619L166.187 236.26C170.93 242.78 178.257 246.485 186.325 246.4C194.393 246.316 201.656 242.484 206.272 235.879L215.251 223.007H364.432L334.681 166.778C331.695 161.147 326.422 157.103 320.218 155.685L283.521 147.598H250.296L211.672 155.77C205.87 157.125 200.809 160.851 197.802 165.995L185.965 186.89L149.67 140.654C149.373 142.242 148.336 144.232 146.557 146.455C143.762 149.969 139.569 153.653 134.762 156.807C128.05 161.211 119.982 164.682 115.175 164.682C114.794 164.682 114.413 164.661 114.074 164.619Z" fill="#3FB1B5"/>
<path d="M324.326 223.409C324.093 223.409 323.881 223.282 323.754 223.071L313.103 202.049C312.955 201.731 313.061 201.35 313.378 201.202C313.696 201.054 314.077 201.159 314.225 201.477L324.877 222.499C325.025 222.817 324.919 223.198 324.601 223.346C324.517 223.388 324.432 223.409 324.326 223.409Z" fill="#3FB1B5"/>
<path d="M214.721 225.378C214.615 225.378 214.531 225.357 214.425 225.315C214.107 225.166 213.98 224.764 214.15 224.468L224.695 203.657C224.843 203.34 225.246 203.213 225.542 203.382C225.86 203.53 225.987 203.933 225.817 204.229L215.272 225.039C215.166 225.251 214.954 225.378 214.721 225.378Z" fill="#3FB1B5"/>
<path d="M195.6 198.915C195.409 198.915 195.218 198.83 195.091 198.661L170.93 167.774C170.718 167.498 170.761 167.096 171.036 166.884C171.311 166.673 171.714 166.715 171.925 166.99L196.087 197.878C196.298 198.153 196.256 198.555 195.981 198.767C195.875 198.873 195.727 198.915 195.6 198.915Z" fill="#3FB1B5"/>
<path d="M279.879 168.853L270.582 157.527C270.35 157.252 270.392 156.85 270.667 156.638C270.942 156.405 271.345 156.448 271.557 156.723L280.048 167.033L299.466 150.562C299.741 150.329 300.144 150.372 300.355 150.626C300.588 150.901 300.546 151.303 300.292 151.515L279.879 168.853Z" fill="#3FB1B5"/>
<path d="M255.738 169.256L233.356 151.536C233.08 151.324 233.038 150.922 233.25 150.647C233.462 150.372 233.864 150.329 234.139 150.541L255.505 167.456L263.743 156.934C263.954 156.659 264.357 156.617 264.632 156.829C264.907 157.04 264.95 157.442 264.738 157.718L255.738 169.256Z" fill="#3FB1B5"/>
<path d="M122.311 174.463C120.3 174.463 119.241 173.849 118.711 173.172C118.5 172.897 118.542 172.494 118.817 172.283C119.093 172.071 119.495 172.113 119.707 172.388C120.596 173.511 123.497 173.447 127.457 172.261C131.671 170.991 136.753 168.493 141.369 165.423C146.091 162.29 150.199 158.67 152.931 155.198C155.409 152.065 156.404 149.482 155.599 148.254C155.409 147.958 155.493 147.577 155.79 147.365C156.086 147.175 156.467 147.259 156.679 147.556C157.823 149.313 156.849 152.298 153.947 155.981C151.131 159.538 146.917 163.264 142.089 166.461C137.303 169.636 132.243 172.134 127.838 173.468C125.445 174.188 123.645 174.463 122.311 174.463Z" fill="#3FB1B5"/>
<path d="M149.48 153.907C147.807 153.907 146.451 152.552 146.451 150.879C146.451 149.207 147.807 147.852 149.48 147.852C151.152 147.852 152.508 149.207 152.508 150.879C152.508 152.552 151.152 153.907 149.48 153.907ZM149.48 149.122C148.505 149.122 147.722 149.906 147.722 150.879C147.722 151.853 148.505 152.637 149.48 152.637C150.454 152.637 151.237 151.853 151.237 150.879C151.237 149.906 150.454 149.122 149.48 149.122Z" fill="#3FB1B5"/>
<path d="M267.639 168.938C265.966 168.938 264.611 167.583 264.611 165.91C264.611 164.238 265.966 162.883 267.639 162.883C269.312 162.883 270.667 164.238 270.667 165.91C270.667 167.583 269.312 168.938 267.639 168.938ZM267.639 164.153C266.665 164.153 265.881 164.937 265.881 165.91C265.881 166.884 266.665 167.668 267.639 167.668C268.613 167.668 269.396 166.884 269.396 165.91C269.396 164.937 268.613 164.153 267.639 164.153Z" fill="#3FB1B5"/>
<path d="M267.639 188.203C265.966 188.203 264.611 186.848 264.611 185.175C264.611 183.503 265.966 182.148 267.639 182.148C269.312 182.148 270.667 183.503 270.667 185.175C270.667 186.848 269.312 188.203 267.639 188.203ZM267.639 183.418C266.665 183.418 265.881 184.202 265.881 185.175C265.881 186.149 266.665 186.933 267.639 186.933C268.613 186.933 269.396 186.149 269.396 185.175C269.396 184.202 268.613 183.418 267.639 183.418Z" fill="#3FB1B5"/>
<path d="M206.018 237.255L215.568 223.642V237.255H206.018Z" fill="#3FB1B5"/>
<path d="M134.19 155.643C124.407 162.079 114.137 165.191 111.893 162.396C111.85 162.354 111.829 162.311 111.787 162.248C111.321 161.549 111.363 160.597 111.787 159.432C113.248 155.6 119.283 149.673 126.948 144.634C133.047 140.612 139.061 137.817 143.232 136.949C145.646 136.462 147.446 136.611 148.314 137.542L148.526 137.796C150.517 140.845 144.122 149.101 134.19 155.643Z" fill="#FE5244"/>
<path d="M134.191 155.643C128.621 159.305 122.883 161.909 118.563 162.925L99.2297 135.658C96.5404 131.847 97.4298 126.576 101.263 123.887L118.669 111.65L108.801 94.8624C107.361 92.4278 108.187 89.2734 110.643 87.8549C111.448 87.3892 112.316 87.1775 113.184 87.1775C114.857 87.1775 116.509 88.0031 117.483 89.5274L148.336 137.5L148.548 137.838C150.517 140.844 144.122 149.101 134.191 155.643Z" fill="#E57281"/>
<path d="M124.132 135.975C123.857 135.975 123.582 135.954 123.306 135.89C122.248 135.679 121.337 135.044 120.765 134.154L110.58 118.912C110.389 118.615 110.474 118.234 110.749 118.023C111.046 117.832 111.427 117.917 111.639 118.192L121.824 133.435C122.226 134.049 122.84 134.472 123.56 134.62C124.28 134.768 125.022 134.62 125.636 134.218L128.028 132.651C129.299 131.826 129.659 130.132 128.854 128.862L118.076 112.158C117.885 111.862 117.97 111.481 118.267 111.29C118.563 111.1 118.944 111.185 119.135 111.481L129.913 128.184C131.099 130.047 130.548 132.524 128.706 133.71L126.313 135.277C125.678 135.742 124.916 135.975 124.132 135.975Z" fill="#9A3B82"/>
<path d="M116.234 141.035C114.921 141.035 113.629 140.4 112.846 139.235C112.655 138.939 112.74 138.558 113.036 138.346C113.333 138.156 113.714 138.24 113.926 138.537C114.752 139.786 116.446 140.146 117.716 139.341L119.897 137.965C120.511 137.563 120.956 136.949 121.104 136.208C121.252 135.467 121.125 134.726 120.723 134.112C120.532 133.816 120.617 133.435 120.914 133.223C121.21 133.032 121.591 133.117 121.803 133.413C122.396 134.324 122.608 135.403 122.375 136.483C122.142 137.542 121.507 138.452 120.596 139.045L118.415 140.421C117.737 140.823 116.975 141.035 116.234 141.035Z" fill="#9A3B82"/>
<path d="M108.484 145.777C107.213 145.777 105.964 145.184 105.18 144.062L99.3993 135.912C99.1876 135.615 99.2723 135.234 99.5476 135.023C99.8229 134.811 100.225 134.896 100.437 135.171L106.218 143.321C107.086 144.528 108.717 144.846 109.945 144.062L109.987 144.041L111.999 142.919C112.634 142.517 113.058 141.903 113.227 141.183C113.396 140.442 113.248 139.701 112.846 139.066L102.872 124.247C102.682 123.95 102.745 123.569 103.042 123.358C103.338 123.167 103.719 123.231 103.931 123.527L113.905 138.346C114.519 139.278 114.709 140.379 114.476 141.437C114.243 142.496 113.608 143.406 112.676 143.978L112.655 143.999L110.644 145.121C109.945 145.587 109.204 145.777 108.484 145.777Z" fill="#9A3B82"/>
<path d="M141.136 126.322L136.075 118.467C134.402 115.864 130.908 115.144 128.346 116.88L115.789 125.39C115.789 125.39 119.431 131.932 128.282 126.745L131.247 131.466C125.191 135.298 123.454 143.364 127.393 149.355L141.136 126.322Z" fill="#E57281"/>
<path d="M127.393 149.99C127.181 149.99 126.991 149.884 126.864 149.694C124.873 146.645 124.174 143.004 124.958 139.447C125.678 136.102 127.605 133.223 130.379 131.275L128.071 127.592C125.021 129.264 122.247 129.751 119.791 129.095C116.678 128.248 115.281 125.792 115.217 125.707L114.942 125.199L127.308 116.562C128.706 115.63 130.358 115.292 131.988 115.63C133.619 115.969 135.016 116.922 135.927 118.34L140.988 126.194C141.178 126.491 141.094 126.872 140.797 127.062C140.501 127.253 140.12 127.168 139.929 126.872L134.868 119.018C134.148 117.896 133.047 117.133 131.734 116.879C130.442 116.604 129.108 116.879 128.028 117.62L116.657 125.559C117.165 126.216 118.309 127.401 120.13 127.888C122.375 128.502 125 127.93 127.944 126.216L128.473 125.898L132.094 131.678L131.565 132.016C128.791 133.773 126.864 136.526 126.165 139.743C125.466 142.961 126.08 146.264 127.901 149.016C128.092 149.312 128.007 149.694 127.711 149.905C127.626 149.948 127.52 149.99 127.393 149.99Z" fill="#9A3B82"/>
<path d="M134.191 155.643C128.621 159.305 122.883 161.909 118.563 162.926L113.756 156.151C116.446 152.637 121.252 148.403 126.949 144.656C133.047 140.633 139.061 137.839 143.233 136.971C145.647 136.484 147.447 136.632 148.315 137.563L148.526 137.818C148.548 137.86 148.569 137.881 148.59 137.923C148.611 137.945 148.611 137.966 148.632 138.008C148.654 138.05 148.675 138.072 148.696 138.114C150.136 141.353 143.804 149.292 134.191 155.643Z" fill="#9A3B82"/>
<path d="M283.563 128.333V146.942C283.563 152.34 276.067 156.701 266.856 156.701C257.623 156.701 250.148 152.34 250.148 146.942V128.333H283.563Z" fill="#E57281"/>
<path d="M255.039 153.843C252.011 152.086 250.126 149.631 250.126 146.942V128.333H283.563V133.499C283.563 138.855 280.301 143.66 275.346 145.672L255.039 153.843Z" fill="#9A3B82"/>
<path d="M292.88 127.232V127.55C292.88 130.768 290.275 133.372 287.057 133.372H283.224C281.932 138.58 277.231 142.454 271.598 142.454H262.112C256.5 142.454 251.778 138.601 250.508 133.372H246.675C243.456 133.372 240.852 130.768 240.852 127.55V127.232C240.852 124.015 243.456 121.411 246.675 121.411H250.148V116.817C250.148 111.905 253.769 107.84 258.491 107.163C259.528 108.899 262.662 113.048 269.057 112.815C272.064 112.71 274.859 112.138 277.168 111.46C279.942 110.656 282.716 112.35 283.414 114.996C283.52 115.589 283.584 116.181 283.584 116.795V121.389H287.057C290.254 121.389 292.88 124.015 292.88 127.232Z" fill="#E57281"/>
<path d="M286.231 121.389H283.562V116.287C283.562 115.843 283.499 115.398 283.393 114.996C282.694 112.349 279.92 110.656 277.146 111.46C274.838 112.138 272.064 112.709 269.036 112.815C262.641 113.048 259.507 108.899 258.469 107.163C253.747 107.84 250.126 111.905 250.126 116.816V121.41H246.802C246.802 121.41 242.99 107.628 245.849 103.733C248.665 99.9012 252.053 101.574 252.053 101.574C252.053 101.574 250.02 90.0993 261.37 90.311C272.699 90.5227 287.438 103.67 288.518 106.083C290.212 109.788 286.231 121.389 286.231 121.389Z" fill="#9A3B82"/>
<path d="M284.854 128.841C284.558 128.841 284.325 128.608 284.325 128.312C284.325 125.771 286.4 123.697 288.941 123.697C289.238 123.697 289.471 123.929 289.471 124.226C289.471 124.522 289.238 124.755 288.941 124.755C286.972 124.755 285.384 126.343 285.384 128.312C285.384 128.608 285.151 128.841 284.854 128.841Z" fill="#9A3B82"/>
<path d="M248.898 128.841C248.602 128.841 248.369 128.608 248.369 128.312C248.369 126.343 246.781 124.755 244.811 124.755C244.515 124.755 244.282 124.522 244.282 124.226C244.282 123.929 244.515 123.697 244.811 123.697C247.352 123.697 249.428 125.771 249.428 128.312C249.428 128.608 249.195 128.841 248.898 128.841Z" fill="#9A3B82"/>
<path d="M278.227 117.346C278.121 117.346 278.015 117.303 277.909 117.24C277.803 117.155 275.071 115.228 271.577 116.689C271.302 116.795 271.006 116.668 270.879 116.393C270.773 116.118 270.9 115.821 271.175 115.694C275.241 114.022 278.396 116.266 278.523 116.372C278.756 116.541 278.819 116.88 278.629 117.113C278.544 117.261 278.396 117.346 278.227 117.346Z" fill="#9A3B82"/>
<path d="M255.272 117.346C255.103 117.346 254.954 117.261 254.849 117.134C254.679 116.901 254.722 116.563 254.954 116.393C255.082 116.288 258.258 114.043 262.302 115.716C262.578 115.822 262.705 116.139 262.599 116.415C262.493 116.69 262.175 116.817 261.9 116.711C258.385 115.25 255.611 117.24 255.569 117.261C255.484 117.304 255.378 117.346 255.272 117.346Z" fill="#9A3B82"/>
<path d="M268.189 135.171C267.364 135.171 266.411 135.002 265.331 134.599C265.055 134.494 264.907 134.197 265.013 133.922C265.119 133.647 265.415 133.499 265.691 133.604C270.137 135.256 271.599 132.334 271.662 132.207C271.789 131.953 272.107 131.826 272.361 131.953C272.615 132.08 272.742 132.398 272.615 132.652C272.594 132.694 271.387 135.171 268.189 135.171Z" fill="#9A3B82"/>
<path d="M266.686 131.191C266.199 131.191 265.669 131.191 265.225 131.149C264.928 131.128 264.716 130.874 264.738 130.577C264.759 130.281 265.013 130.069 265.309 130.09C266.559 130.175 268.486 130.09 268.507 130.09C268.803 130.069 269.036 130.302 269.057 130.598C269.079 130.895 268.846 131.128 268.549 131.149C268.507 131.149 267.639 131.191 266.686 131.191Z" fill="#9A3B82"/>
<path d="M274.817 125.644C275.402 125.644 275.876 124.848 275.876 123.866C275.876 122.884 275.402 122.088 274.817 122.088C274.233 122.088 273.758 122.884 273.758 123.866C273.758 124.848 274.233 125.644 274.817 125.644Z" fill="#9A3B82"/>
<path d="M259.634 125.644C260.219 125.644 260.693 124.848 260.693 123.866C260.693 122.884 260.219 122.088 259.634 122.088C259.049 122.088 258.575 122.884 258.575 123.866C258.575 124.848 259.049 125.644 259.634 125.644Z" fill="#9A3B82"/>
<path d="M262.154 130.387H255.484C253.917 130.387 252.625 129.095 252.625 127.529V120.86C252.625 119.293 253.917 118.002 255.484 118.002H262.154C263.721 118.002 265.013 119.293 265.013 120.86V127.529C265.034 128.27 264.738 128.989 264.208 129.519C263.658 130.09 262.938 130.387 262.154 130.387ZM255.484 119.06C254.489 119.06 253.684 119.865 253.684 120.86V127.529C253.684 128.524 254.489 129.328 255.484 129.328H262.154C262.641 129.328 263.107 129.138 263.446 128.778C263.785 128.439 263.954 127.994 263.954 127.529V120.86C263.954 119.865 263.149 119.06 262.154 119.06H255.484Z" fill="white"/>
<path d="M278.48 130.387H271.81C270.243 130.387 268.951 129.095 268.951 127.529V120.86C268.951 119.293 270.243 118.002 271.81 118.002H278.48C280.047 118.002 281.339 119.293 281.339 120.86V127.529C281.339 129.095 280.047 130.387 278.48 130.387ZM271.81 119.06C270.815 119.06 270.01 119.865 270.01 120.86V127.529C270.01 128.524 270.815 129.328 271.81 129.328H278.48C279.475 129.328 280.28 128.524 280.28 127.529V120.86C280.28 119.865 279.475 119.06 278.48 119.06H271.81Z" fill="white"/>
<path d="M269.481 122.405H264.505V123.464H269.481V122.405Z" fill="white"/>
<path d="M280.239 216.063H257.094C254.637 216.063 252.647 214.073 252.647 211.617V199.317C252.647 196.861 254.637 194.871 257.094 194.871H280.239C282.695 194.871 284.686 196.861 284.686 199.317V211.617C284.686 214.073 282.695 216.063 280.239 216.063ZM257.094 196.142C255.336 196.142 253.917 197.56 253.917 199.317V211.617C253.917 213.374 255.336 214.793 257.094 214.793H280.239C281.996 214.793 283.415 213.374 283.415 211.617V199.317C283.415 197.56 281.996 196.142 280.239 196.142H257.094Z" fill="#66B0F0"/>
<path d="M269.248 210.474H261.413C260.164 210.474 259.148 209.458 259.148 208.209V202.726C259.148 201.477 260.164 200.461 261.413 200.461H269.248C270.498 200.461 271.514 201.477 271.514 202.726V208.209C271.514 209.458 270.498 210.474 269.248 210.474Z" fill="#66B0F0"/>
<path d="M276.872 210.326L274.458 208.717C273.801 208.272 273.399 207.51 273.399 206.685V204.271C273.399 203.446 273.801 202.683 274.458 202.239L276.872 200.63C277.443 200.249 278.185 200.672 278.185 201.392V209.585C278.206 210.284 277.443 210.707 276.872 210.326Z" fill="#66B0F0"/>
<path d="M558.933 285.354H27.6004C27.2602 285.354 27 285.079 27 284.719C27 284.359 27.2602 284.084 27.6004 284.084H558.933C559.273 284.084 559.533 284.359 559.533 284.719C559.533 285.079 559.273 285.354 558.933 285.354Z" fill="#3FB1B5"/>
<path d="M198.667 288.423V549.793H184.717V500.043C184.717 495.406 181.154 491.638 176.771 491.638H76.917C72.5337 491.638 68.9711 495.406 68.9711 500.043V549.793H55.0208V288.423H198.667Z" fill="white"/>
<path d="M199.267 550.428H184.116V500.043C184.116 495.766 180.814 492.273 176.771 492.273H76.917C72.874 492.273 69.5716 495.766 69.5716 500.043V550.428H54.4204V287.788H199.267V550.428V550.428ZM185.317 549.158H198.066V289.059H55.6213V549.158H68.3707V500.043C68.3707 495.068 72.2136 491.003 76.917 491.003H176.771C181.474 491.003 185.317 495.068 185.317 500.043V549.158Z" fill="#3FB1B5"/>
<path d="M199.087 288.423V357.778L55.0208 483.254L55.0408 288.423H199.087Z" fill="#D0F0E4"/>
<path d="M177.191 364.319H76.5167C72.0334 364.319 68.3907 360.466 68.3907 355.724V308.324C68.3907 303.581 72.0334 299.728 76.5167 299.728H177.191C181.674 299.728 185.317 303.581 185.317 308.324V355.724C185.317 360.466 181.674 364.319 177.191 364.319ZM76.5167 300.999C72.6939 300.999 69.5916 304.28 69.5916 308.324V355.724C69.5916 359.768 72.6939 363.049 76.5167 363.049H177.191C181.014 363.049 184.116 359.768 184.116 355.724V308.324C184.116 304.28 181.014 300.999 177.191 300.999H76.5167Z" fill="#3FB1B5"/>
<path d="M152.452 399.589H102.896L100.834 384.579H150.411L152.452 399.589Z" fill="#FFCF2D"/>
<path d="M178.892 375.921C172.708 375.921 167.704 381.213 167.704 387.755V399.589H125.533V387.755C125.533 381.213 130.536 375.921 136.721 375.921H178.892Z" fill="white"/>
<path d="M168.304 400.225H124.932V387.755C124.932 380.875 130.216 375.286 136.721 375.286H178.892V376.556C173.048 376.556 168.304 381.573 168.304 387.755V400.225ZM126.133 398.954H167.104V387.755C167.104 382.844 169.806 378.588 173.708 376.556H136.721C130.877 376.556 126.133 381.573 126.133 387.755V398.954Z" fill="#3FB1B5"/>
<path d="M189.4 384.579H147.229C145.928 379.583 141.585 375.921 136.441 375.921H178.612C183.756 375.921 188.079 379.583 189.4 384.579Z" fill="white"/>
<path d="M190.201 385.215H146.789L146.669 384.749C145.408 379.922 141.205 376.556 136.462 376.556V375.286H178.633C183.897 375.286 188.58 379.033 190.001 384.41L190.201 385.215ZM147.67 383.944H188.58C187.079 379.562 183.076 376.556 178.613 376.556H141.625C144.447 378.017 146.689 380.663 147.67 383.944Z" fill="#3FB1B5"/>
<path d="M177.191 463.545H76.5167C72.0334 463.545 68.3907 459.692 68.3907 454.95V407.549C68.3907 402.807 72.0334 398.954 76.5167 398.954H177.191C181.674 398.954 185.317 402.807 185.317 407.549V454.95C185.317 459.692 181.674 463.545 177.191 463.545ZM76.5167 400.224C72.6939 400.224 69.5916 403.506 69.5916 407.549V454.95C69.5916 458.993 72.6939 462.274 76.5167 462.274H177.191C181.014 462.274 184.116 458.993 184.116 454.95V407.549C184.116 403.506 181.014 400.224 177.191 400.224H76.5167Z" fill="#3FB1B5"/>
<path d="M147.489 331.717C147.149 331.717 146.888 331.442 146.888 331.082C146.888 327.652 144.266 324.879 141.024 324.879H112.703C109.461 324.879 106.839 327.652 106.839 331.082C106.839 331.442 106.579 331.717 106.238 331.717C105.898 331.717 105.638 331.442 105.638 331.082C105.638 326.953 108.8 323.608 112.703 323.608H141.024C144.927 323.608 148.089 326.953 148.089 331.082C148.089 331.442 147.829 331.717 147.489 331.717Z" fill="#3FB1B5"/>
<path d="M147.489 430.942C147.149 430.942 146.888 430.667 146.888 430.307C146.888 426.877 144.266 424.104 141.024 424.104H112.703C109.461 424.104 106.839 426.877 106.839 430.307C106.839 430.667 106.579 430.942 106.238 430.942C105.898 430.942 105.638 430.667 105.638 430.307C105.638 426.179 108.8 422.834 112.703 422.834H141.024C144.927 422.834 148.089 426.179 148.089 430.307C148.089 430.667 147.829 430.942 147.489 430.942Z" fill="#3FB1B5"/>
<path d="M537.777 288.423H522.906V550.365H537.777V288.423Z" fill="white"/>
<path d="M538.377 551H522.305V287.788H538.377V551ZM523.506 549.73H537.176V289.059H523.506V549.73Z" fill="#3FB1B5"/>
<path d="M595.4 551H285.05C284.71 551 284.45 550.725 284.45 550.365C284.45 550.005 284.71 549.73 285.05 549.73H595.4C595.74 549.73 596 550.005 596 550.365C596 550.725 595.74 551 595.4 551Z" fill="#3FB1B5"/>
<path d="M101.326 248.792H91.8185C91.8185 248.792 78.245 192.246 66.3231 190.404C54.4013 188.562 53.7872 210.326 53.7872 210.326C53.7872 210.326 53.999 177.236 83.793 181.767C113.608 186.297 101.326 248.792 101.326 248.792Z" fill="white"/>
<path d="M101.856 249.427H91.332L91.2049 248.941C91.1626 248.792 87.7533 234.651 82.9464 220.488C74.9844 197.052 69.4576 191.526 66.2389 191.039C64.0367 190.701 62.0885 191.209 60.4792 192.564C54.8677 197.221 54.4441 210.22 54.4441 210.347L53.1736 210.326C53.1736 210.156 53.216 206.282 54.4653 201.328C55.63 196.734 58.0863 190.32 63.232 185.916C68.4624 181.449 75.4079 179.84 83.9205 181.153C89.4262 181.979 93.8942 184.815 97.2188 189.536C102.555 197.137 104.99 209.437 104.418 226.14C103.995 238.525 102.004 248.814 101.983 248.919L101.856 249.427ZM92.3272 248.157H100.819C101.221 245.934 102.788 236.789 103.148 226.076C103.529 214.793 102.619 199.444 96.1812 190.277C93.0684 185.832 88.8756 183.185 83.7299 182.423C75.6197 181.195 68.9917 182.698 64.0578 186.911C62.5755 188.181 61.305 189.642 60.2462 191.188C62.0462 189.917 64.1214 189.473 66.4507 189.833C71.6387 190.637 77.6102 200.841 84.1746 220.149C88.4733 232.83 91.6708 245.532 92.3272 248.157Z" fill="#3FB1B5"/>
<path d="M97.1547 248.581C96.8159 248.581 96.5194 248.305 96.5194 247.946C95.8206 205.795 86.8845 190.913 79.5154 185.874C73.9251 182.042 69.0335 183.778 68.9912 183.799C68.6524 183.926 68.2924 183.757 68.1653 183.418C68.0383 183.079 68.2077 182.72 68.5465 182.593C68.7794 182.508 74.0945 180.624 80.2354 184.815C84.9787 188.076 88.8539 194.046 91.7337 202.599C95.4395 213.607 97.4723 228.85 97.79 247.924C97.79 248.284 97.5147 248.581 97.1547 248.581Z" fill="#3FB1B5"/>
<path d="M127.224 247.946H82.5648V284.295H127.224V247.946Z" fill="#FE5244"/>
<path d="M136.626 266.131C133.789 267.359 130.401 267.21 127.245 265.834C124.916 264.818 122.714 263.146 120.935 260.859C118.479 257.684 116.827 253.344 116.827 247.945C116.827 234.862 106.409 226.648 102.131 243.965C101.835 245.172 101.559 246.485 101.327 247.945V247.903V247.818C101.327 247.776 101.327 247.712 101.348 247.649V247.564C101.432 246.485 101.75 243.288 102.724 239.435C103.444 236.577 104.524 233.401 106.133 230.459C106.938 228.998 107.87 227.601 108.971 226.351C111.808 223.091 115.705 220.805 121.02 220.805C130.803 220.805 137.96 232.322 140.692 243.796C143.085 253.767 142.111 263.738 136.626 266.131Z" fill="white"/>
<path d="M132.455 267.592C130.655 267.592 128.77 267.189 126.991 266.406C124.471 265.305 122.206 263.527 120.427 261.24C117.653 257.663 116.192 253.047 116.192 247.945C116.192 241.975 113.566 235.243 109.649 234.777C106.811 234.439 104.312 237.847 102.745 244.114C102.428 245.426 102.174 246.696 101.941 248.051L100.67 247.945V247.818C100.67 247.776 100.67 247.67 100.691 247.564V247.501C100.776 246.315 101.115 243.14 102.089 239.266C102.957 235.836 104.122 232.766 105.562 230.141C106.472 228.511 107.425 227.114 108.484 225.928C111.808 222.096 116.022 220.17 121.02 220.17C131.184 220.17 138.532 231.962 141.306 243.648C142.534 248.792 142.873 253.852 142.238 257.895C141.539 262.447 139.675 265.474 136.88 266.702C135.525 267.295 134.022 267.592 132.455 267.592ZM109.267 233.486C109.458 233.486 109.627 233.507 109.797 233.528C114.032 234.036 117.462 240.515 117.462 247.967C117.462 252.793 118.839 257.133 121.443 260.499C123.095 262.617 125.191 264.268 127.5 265.284C130.528 266.597 133.767 266.702 136.372 265.58C141.115 263.506 142.619 254.635 140.078 243.987C138.659 237.995 136.139 232.47 133.005 228.426C129.469 223.875 125.34 221.482 121.02 221.482C116.425 221.482 112.528 223.282 109.458 226.817C108.463 227.96 107.552 229.252 106.705 230.819C105.646 232.766 104.736 234.947 103.995 237.36C104.355 236.767 104.715 236.238 105.096 235.772C106.599 233.931 108.124 233.486 109.267 233.486Z" fill="#3FB1B5"/>
<path d="M134.36 267.168C134.042 267.168 133.767 266.935 133.725 266.597C130.633 237.572 123.582 228.596 118.224 226.182C113.439 224.023 109.394 226.839 109.352 226.86C109.076 227.072 108.674 226.987 108.462 226.712C108.251 226.436 108.335 226.034 108.611 225.823C108.801 225.695 113.29 222.562 118.733 225.018C122.332 226.648 125.466 230.332 128.029 236.005C131.247 243.098 133.577 253.344 134.974 266.449C135.017 266.787 134.762 267.105 134.402 267.147C134.402 267.168 134.381 267.168 134.36 267.168Z" fill="#3FB1B5"/>
<path d="M53.1517 210.326C53.1517 213.819 52.7494 227.177 65.4971 227.791C78.2448 228.405 79.5153 209.161 79.5153 209.161C79.5153 209.161 73.2474 192.14 66.323 190.404C54.6129 187.462 53.1517 210.326 53.1517 210.326Z" fill="#3FB1B5"/>
<path d="M116.827 247.946H101.326C104.905 225.526 116.827 233.952 116.827 247.946Z" fill="#3FB1B5"/>
<path opacity="0.4" d="M380.06 83.2821V223.028C380.06 230.543 373.962 236.619 366.466 236.619H206.484C196.447 250.444 175.758 250.507 165.637 236.619L165.615 236.598C161.592 236.323 158.035 234.269 155.748 231.242L159.432 228.067L253.452 146.941L342.982 69.6906H366.466C373.962 69.6906 380.06 75.7877 380.06 83.2821Z" fill="white"/>
<path opacity="0.4" d="M136.626 266.766C133.81 268.036 130.4 267.846 127.245 266.47V284.295H94.2749L120.956 261.283L127.266 255.842L132.073 251.693L141.369 243.796C144.08 255.355 142.576 264.035 136.626 266.766Z" fill="white"/>
<path d="M417.392 360.826V478.66H390.16L372.818 430.244L347.979 360.826H417.392Z" fill="#A0505A"/>
<path d="M347.979 360.826H417.392V398.657L356.237 383.88L347.979 360.826Z" fill="#73325A"/>
<path d="M418.028 479.295H389.716L371.653 428.867L373.136 429.672C373.178 429.693 376.693 431.577 383.85 432.509C390.457 433.377 401.638 433.567 417.244 429.608L418.028 429.418V479.295V479.295ZM390.605 478.025H416.757V431.048C401.299 434.88 390.203 434.647 383.575 433.779C378.768 433.144 375.592 432.106 373.919 431.429L390.605 478.025Z" fill="white"/>
<path d="M386.984 442.247C384.93 442.247 383.258 440.575 383.258 438.521C383.258 436.468 384.93 434.795 386.984 434.795C389.038 434.795 390.711 436.468 390.711 438.521C390.711 440.575 389.038 442.247 386.984 442.247ZM386.984 436.065C385.629 436.065 384.528 437.166 384.528 438.521C384.528 439.876 385.629 440.977 386.984 440.977C388.34 440.977 389.441 439.876 389.441 438.521C389.441 437.166 388.34 436.065 386.984 436.065Z" fill="white"/>
<path d="M401.723 452.218C399.669 452.218 397.996 450.546 397.996 448.493C397.996 446.439 399.669 444.766 401.723 444.766C403.777 444.766 405.45 446.439 405.45 448.493C405.45 450.546 403.777 452.218 401.723 452.218ZM401.723 446.037C400.368 446.037 399.266 447.138 399.266 448.493C399.266 449.847 400.368 450.948 401.723 450.948C403.078 450.948 404.179 449.847 404.179 448.493C404.179 447.138 403.078 446.037 401.723 446.037Z" fill="white"/>
<path d="M412.691 441.146C410.637 441.146 408.964 439.474 408.964 437.42C408.964 435.367 410.637 433.694 412.691 433.694C414.745 433.694 416.418 435.367 416.418 437.42C416.418 439.474 414.745 441.146 412.691 441.146ZM412.691 434.964C411.336 434.964 410.235 436.065 410.235 437.42C410.235 438.775 411.336 439.876 412.691 439.876C414.047 439.876 415.148 438.775 415.148 437.42C415.148 436.065 414.047 434.964 412.691 434.964Z" fill="white"/>
<path d="M408.351 463.82C406.296 463.82 404.624 462.147 404.624 460.094C404.624 458.04 406.296 456.368 408.351 456.368C410.405 456.368 412.077 458.04 412.077 460.094C412.077 462.147 410.405 463.82 408.351 463.82ZM408.351 457.638C406.995 457.638 405.894 458.739 405.894 460.094C405.894 461.449 406.995 462.549 408.351 462.549C409.706 462.549 410.807 461.449 410.807 460.094C410.807 458.739 409.706 457.638 408.351 457.638Z" fill="white"/>
<path d="M390.076 458.189C388.022 458.189 386.349 456.516 386.349 454.462C386.349 452.409 388.022 450.736 390.076 450.736C392.13 450.736 393.803 452.409 393.803 454.462C393.803 456.516 392.13 458.189 390.076 458.189ZM390.076 452.007C388.721 452.007 387.62 453.108 387.62 454.462C387.62 455.817 388.721 456.918 390.076 456.918C391.432 456.918 392.533 455.817 392.533 454.462C392.533 453.108 391.432 452.007 390.076 452.007Z" fill="white"/>
<path d="M395.116 475.125C393.062 475.125 391.389 473.452 391.389 471.399C391.389 469.345 393.062 467.673 395.116 467.673C397.17 467.673 398.843 469.345 398.843 471.399C398.843 473.452 397.17 475.125 395.116 475.125ZM395.116 468.943C393.761 468.943 392.659 470.044 392.659 471.399C392.659 472.754 393.761 473.855 395.116 473.855C396.471 473.855 397.572 472.754 397.572 471.399C397.572 470.044 396.471 468.943 395.116 468.943Z" fill="white"/>
<path d="M430.267 500.635L411.59 539.399C408.943 545.644 402.823 549.708 396.026 549.708H372.204C366.105 549.708 362.399 543.527 364.729 537.895L388.678 480.142C390.012 476.628 392.363 473.707 395.306 471.653C398.271 469.6 401.828 468.435 405.576 468.435C410.786 468.435 415.952 471.971 419.383 475.887L427.684 484.842C431.516 489.203 432.512 495.322 430.267 500.635Z" fill="#66B0F0"/>
<path d="M430.267 500.635L411.59 539.398C408.943 545.644 402.824 549.708 396.026 549.708H370.7C368.35 549.708 367.016 548.248 366.232 546.236H371.865C378.662 546.236 384.782 542.172 387.429 535.926L408.965 491.024C410.976 486.832 415.233 484.144 419.891 484.144C425.969 484.144 430.585 488.589 431.432 494.221C431.516 496.38 431.135 498.561 430.267 500.635Z" fill="white"/>
<path d="M396.026 550.344H370.7C368.35 550.344 366.634 549.031 365.639 546.469C365.554 546.279 365.597 546.046 365.703 545.877C365.83 545.707 366.02 545.601 366.232 545.601H371.865C378.408 545.601 384.295 541.706 386.836 535.672C386.836 535.672 386.836 535.651 386.857 535.651L408.393 490.749C410.51 486.345 415.021 483.509 419.891 483.509C426.011 483.509 431.135 487.975 432.067 494.136C432.067 494.157 432.067 494.178 432.067 494.2C432.152 496.486 431.749 498.751 430.86 500.889C430.86 500.889 430.86 500.911 430.839 500.911L412.162 539.652C409.409 546.152 403.078 550.344 396.026 550.344ZM367.227 546.872C368.032 548.375 369.154 549.073 370.7 549.073H396.026C402.569 549.073 408.456 545.178 410.997 539.144C410.997 539.144 410.997 539.123 411.018 539.123L429.695 500.381C430.5 498.434 430.881 496.38 430.796 494.284C429.949 488.78 425.375 484.779 419.891 484.779C415.508 484.779 411.442 487.34 409.536 491.299L388.001 536.181C385.248 542.68 378.916 546.872 371.865 546.872H367.227Z" fill="#66B0F0"/>
<path d="M425.968 482.979C423.724 481.751 421.013 480.862 418.642 480.862C414.089 480.862 409.875 483.509 407.906 487.616L385.608 534.106C382.77 540.817 376.206 545.157 368.9 545.157H364.792C364.581 544.755 364.432 544.331 364.284 543.887H368.9C375.698 543.887 381.796 539.843 384.443 533.598L384.464 533.577L406.783 487.065C408.964 482.514 413.623 479.592 418.663 479.592C420.272 479.592 422.199 480.121 423.851 480.693L425.968 482.979Z" fill="white"/>
<path d="M347.979 360.826L342.664 430.244L340.292 461.343C340.292 461.343 324.813 478.576 307.195 467.948L299.042 430.265L280.386 344.038C275.347 320.729 291.271 298.056 314.924 294.901L347.979 360.826Z" fill="#A0505A"/>
<path d="M319.116 472.881C315.326 472.881 311.154 471.929 306.877 469.346L306.644 469.198L298.216 429.355L299.233 429.672C319.286 435.685 342.282 429.715 342.515 429.651L343.384 429.418L340.927 462.465L340.779 462.635C340.61 462.804 336.756 467.059 330.636 470.065C327.565 471.547 323.584 472.881 319.116 472.881ZM307.766 468.393C314.797 472.542 322.293 472.712 330.043 468.922C335.295 466.34 338.937 462.698 339.678 461.915L341.965 431.07C340.038 431.514 335.04 432.594 328.582 433.187C321.149 433.885 310.244 434.055 299.868 431.176L307.766 468.393Z" fill="white"/>
<path d="M318.333 450.081C316.279 450.081 314.606 448.408 314.606 446.354C314.606 444.301 316.279 442.629 318.333 442.629C320.387 442.629 322.059 444.301 322.059 446.354C322.059 448.408 320.387 450.081 318.333 450.081ZM318.333 443.899C316.977 443.899 315.876 445 315.876 446.354C315.876 447.709 316.977 448.81 318.333 448.81C319.688 448.81 320.789 447.709 320.789 446.354C320.789 445 319.688 443.899 318.333 443.899Z" fill="white"/>
<path d="M337.984 445.339C335.93 445.339 334.257 443.666 334.257 441.613C334.257 439.559 335.93 437.887 337.984 437.887C340.038 437.887 341.711 439.559 341.711 441.613C341.711 443.666 340.038 445.339 337.984 445.339ZM337.984 439.157C336.628 439.157 335.527 440.258 335.527 441.613C335.527 442.968 336.628 444.068 337.984 444.068C339.339 444.068 340.44 442.968 340.44 441.613C340.44 440.258 339.339 439.157 337.984 439.157Z" fill="white"/>
<path d="M306.475 441.147C304.421 441.147 302.748 439.474 302.748 437.421C302.748 435.367 304.421 433.695 306.475 433.695C308.529 433.695 310.202 435.367 310.202 437.421C310.202 439.474 308.529 441.147 306.475 441.147ZM306.475 434.965C305.119 434.965 304.018 436.066 304.018 437.421C304.018 438.775 305.119 439.876 306.475 439.876C307.83 439.876 308.931 438.775 308.931 437.421C308.931 436.066 307.83 434.965 306.475 434.965Z" fill="white"/>
<path d="M315.241 466.911C313.187 466.911 311.514 465.238 311.514 463.185C311.514 461.131 313.187 459.459 315.241 459.459C317.295 459.459 318.968 461.131 318.968 463.185C318.968 465.238 317.295 466.911 315.241 466.911ZM315.241 460.729C313.886 460.729 312.785 461.83 312.785 463.185C312.785 464.54 313.886 465.641 315.241 465.641C316.597 465.641 317.698 464.54 317.698 463.185C317.698 461.83 316.597 460.729 315.241 460.729Z" fill="white"/>
<path d="M329.662 460.729C327.608 460.729 325.935 459.057 325.935 457.003C325.935 454.95 327.608 453.277 329.662 453.277C331.716 453.277 333.388 454.95 333.388 457.003C333.388 459.057 331.716 460.729 329.662 460.729ZM329.662 454.547C328.306 454.547 327.205 455.648 327.205 457.003C327.205 458.358 328.306 459.459 329.662 459.459C331.017 459.459 332.118 458.358 332.118 457.003C332.118 455.648 331.017 454.547 329.662 454.547Z" fill="white"/>
<path d="M360.705 468.753L340.292 550.365H333.855C333.558 550.365 333.283 550.344 332.986 550.323C328.116 549.878 324.008 545.771 322.97 540.923L307.173 467.906C324.791 478.555 340.292 461.322 340.292 461.322L360.705 468.753Z" fill="#66B0F0"/>
<path d="M361.743 510.629C366.041 487.934 367.227 470.595 359.816 469.198C352.404 467.801 339.212 482.853 334.913 505.548C330.615 528.242 332.859 548.312 340.271 549.709C347.682 551.128 357.444 533.344 361.743 510.629Z" fill="white"/>
<path d="M341.118 550.429C340.8 550.429 340.461 550.408 340.144 550.344C336.29 549.624 333.6 544.416 332.563 535.694C331.568 527.289 332.182 516.535 334.278 505.442C336.269 494.962 340.313 485.203 345.671 477.962C350.583 471.336 355.919 467.822 359.922 468.584C363.776 469.304 365.681 473.665 365.787 481.921C365.872 488.653 364.75 498.074 362.357 510.755C360.663 519.689 358.101 528.094 354.945 535.059C351.833 541.939 348.423 546.766 345.099 549.031C343.744 549.942 342.41 550.429 341.118 550.429ZM358.821 469.748C355.432 469.748 350.88 473.093 346.708 478.725C341.457 485.817 337.497 495.386 335.527 505.674C333.452 516.662 332.838 527.268 333.812 535.546C334.765 543.548 337.158 548.481 340.377 549.095C341.605 549.328 342.96 548.947 344.4 547.973C350.901 543.548 357.783 528.157 361.107 510.522C363.5 497.947 364.601 488.59 364.517 481.942C364.432 474.49 362.802 470.426 359.689 469.833C359.413 469.769 359.117 469.748 358.821 469.748Z" fill="#66B0F0"/>
<path d="M331.949 505.187C329.725 516.958 329.069 528.326 330.128 537.218C330.89 543.611 332.499 548.163 334.701 550.365H333.854C333.558 550.365 333.283 550.344 332.986 550.322C330.996 547.697 329.577 543.294 328.857 537.366C327.777 528.369 328.433 516.852 330.699 504.954C332.838 493.692 337.158 483.128 342.896 475.189C346.327 470.447 349.927 467.123 353.209 465.62L355.115 466.255C347.555 468.499 336.078 483.403 331.949 505.187Z" fill="white"/>
<path d="M314.924 294.88L411.527 284.93L508.088 312.007L507.262 324.837C505.949 345.076 488.5 360.826 468.214 360.826H348L314.924 294.88Z" fill="#FE5244"/>
<path d="M463.957 352.571H343.744C343.384 352.571 343.109 352.296 343.109 351.936C343.109 351.576 343.384 351.301 343.744 351.301H463.957C473.148 351.301 482.783 346.453 490.406 337.963C497.627 329.918 501.946 319.862 501.946 311.077C501.946 310.717 502.222 310.442 502.582 310.442C502.942 310.442 503.217 310.717 503.217 311.077C503.217 320.18 498.77 330.554 491.359 338.831C483.481 347.553 473.508 352.571 463.957 352.571Z" fill="white"/>
<path d="M454.492 341.985H338.873C338.513 341.985 338.238 341.71 338.238 341.35C338.238 340.99 338.513 340.715 338.873 340.715H454.492C462.518 340.715 470.818 336.947 477.828 330.087C484.413 323.652 489.029 315.353 490.491 307.308C490.554 306.969 490.893 306.736 491.232 306.8C491.57 306.863 491.803 307.202 491.74 307.541C488.754 323.821 472.724 341.985 454.492 341.985Z" fill="white"/>
<path d="M444.306 331.188H332.732C332.372 331.188 332.097 330.913 332.097 330.553C332.097 330.193 332.372 329.918 332.732 329.918H444.306C459.553 329.918 472.788 316.2 477.51 303.307C477.637 302.968 477.997 302.799 478.314 302.926C478.653 303.053 478.823 303.413 478.696 303.73C476.07 310.907 471.326 317.66 465.313 322.741C458.769 328.267 451.506 331.188 444.306 331.188Z" fill="white"/>
<path d="M438.801 319.544H327.227C326.867 319.544 326.592 319.269 326.592 318.909C326.592 318.549 326.867 318.274 327.227 318.274H438.801C449.304 318.274 460.315 311.436 467.557 300.449C467.748 300.152 468.15 300.068 468.447 300.258C468.743 300.449 468.828 300.851 468.637 301.147C461.141 312.495 449.727 319.544 438.801 319.544Z" fill="white"/>
<path d="M433.507 308.959H321.933C321.573 308.959 321.298 308.684 321.298 308.324C321.298 307.964 321.573 307.689 321.933 307.689H433.507C441.596 307.689 449.749 303.963 456.461 297.21C456.715 296.956 457.118 296.956 457.351 297.21C457.605 297.464 457.605 297.866 457.351 298.099C450.405 305.106 441.935 308.959 433.507 308.959Z" fill="white"/>
<path d="M427.79 298.162H316.216C315.856 298.162 315.58 297.887 315.58 297.527C315.58 297.167 315.856 296.892 316.216 296.892H427.79C432.554 296.892 437.34 295.537 442.041 292.891C442.337 292.722 442.74 292.827 442.909 293.124C443.078 293.42 442.973 293.822 442.676 293.992C437.785 296.765 432.766 298.162 427.79 298.162Z" fill="white"/>
<path d="M347.768 361.462C347.535 361.462 347.302 361.335 347.196 361.102L314.141 295.156C313.992 294.839 314.12 294.458 314.416 294.309C314.734 294.161 315.115 294.288 315.263 294.585L348.318 360.53C348.466 360.848 348.339 361.229 348.043 361.377C347.958 361.441 347.873 361.462 347.768 361.462Z" fill="white"/>
<path d="M513.381 223.642C504.276 226.225 495.319 225.463 494.366 222.69C493.476 220.043 497.5 215.513 505.652 212.507C506.055 212.358 506.478 212.21 506.902 212.062C509.358 211.236 511.814 210.707 514.123 210.432C520.962 209.564 526.531 210.792 527.23 212.867C528.183 215.64 523.016 220.911 513.381 223.642Z" fill="white"/>
<path d="M502.539 225.865C497.923 225.865 494.429 224.827 493.751 222.901C492.608 219.514 497.627 214.793 505.419 211.914C505.821 211.765 506.245 211.617 506.668 211.469H506.69C509.083 210.664 511.56 210.114 514.038 209.818C521.047 208.928 526.976 210.156 527.823 212.676C528.119 213.501 527.971 214.517 527.421 215.576C525.642 218.963 520.2 222.393 513.551 224.277C509.718 225.336 505.843 225.865 502.539 225.865ZM518.463 210.791C517.172 210.791 515.753 210.876 514.207 211.067C511.814 211.363 509.421 211.892 507.113 212.676C506.69 212.824 506.266 212.972 505.885 213.12C502.2 214.475 499.067 216.275 497.076 218.201C495.403 219.81 494.62 221.419 494.98 222.499C495.678 224.552 503.831 225.695 513.212 223.049C518.4 221.588 524.456 218.519 526.298 214.983C526.679 214.242 526.806 213.586 526.637 213.078C526.256 211.956 523.249 210.791 518.463 210.791Z" fill="#3FB1B5"/>
<path d="M507.621 285.375H504.127L494.958 223.494V223.451L494.725 221.906C495.17 219.09 499.574 215.11 507.346 212.528C511.221 211.236 515.075 210.665 518.357 210.601L521.703 219.768L522.02 220.636L532.608 249.66C538.961 266.999 526.107 285.375 507.621 285.375Z" fill="#A0505A"/>
<path d="M521.915 220.424C519.691 221.821 516.811 223.113 513.381 224.087C505.504 226.309 497.52 225.399 494.958 223.494V223.451L494.725 221.906C495.17 219.09 499.574 215.11 507.346 212.528C511.221 211.236 515.075 210.665 518.357 210.601L521.915 220.424Z" fill="#73325A"/>
<path d="M394.205 234.46L383.088 262.109C377.604 275.764 364.348 284.719 349.609 284.719H200.174V271.043C200.174 267.74 202.206 264.776 205.298 263.612L220.65 257.79C222.048 257.261 223.509 256.985 224.991 256.985H242.419L341.055 247.035L358.08 208.061L394.205 234.46Z" fill="#A0505A"/>
<path d="M200.809 276.822C200.449 276.822 200.174 276.547 200.174 276.187C200.174 273.414 201.846 270.979 204.451 269.984L216.034 265.602C216.352 265.475 216.733 265.644 216.86 265.962C216.987 266.279 216.818 266.66 216.5 266.787L204.917 271.17C202.82 271.974 201.444 273.943 201.444 276.187C201.444 276.547 201.169 276.822 200.809 276.822Z" fill="#73325A"/>
<path d="M200.809 283.808C200.449 283.808 200.174 283.533 200.174 283.173C200.174 280.4 201.846 277.965 204.451 276.97L216.034 272.588C216.352 272.461 216.733 272.63 216.86 272.948C216.987 273.265 216.818 273.646 216.5 273.773L204.917 278.156C202.82 278.96 201.444 280.929 201.444 283.173C201.444 283.533 201.169 283.808 200.809 283.808Z" fill="#73325A"/>
<path d="M204.684 284.719C204.43 284.719 204.175 284.549 204.091 284.295C203.964 283.957 204.133 283.597 204.472 283.491L216.055 279.32C216.394 279.193 216.754 279.363 216.86 279.701C216.987 280.04 216.817 280.4 216.479 280.506L204.895 284.676C204.832 284.698 204.747 284.719 204.684 284.719Z" fill="#73325A"/>
<path d="M215.06 260.14C215.06 260.14 225.902 232.47 229.375 232.936C232.847 233.402 219.761 258.362 219.761 258.362L215.06 260.14Z" fill="#FE5244"/>
<path d="M358.079 208.082L355.581 213.777L387.577 250.931L394.205 234.46L358.079 208.082Z" fill="#73325A"/>
<path d="M494.958 223.515L508.087 312.007L411.548 284.93L394.205 234.439L349.44 201.731L365.152 183.016C379.171 166.313 399.859 156.659 421.67 156.659H452.692C479.67 156.659 504.509 171.393 517.447 195.062L527.505 212.464C527.505 212.464 524.477 208.018 508.151 212.485C493.773 216.444 494.958 223.515 494.958 223.515Z" fill="#3FB1B5"/>
<path d="M394.205 234.672C394.163 234.672 394.099 234.672 394.057 234.651C393.718 234.566 393.506 234.227 393.591 233.888L398.61 212.125C398.694 211.786 399.033 211.575 399.372 211.659C399.711 211.744 399.923 212.083 399.838 212.422L394.819 234.185C394.756 234.481 394.502 234.672 394.205 234.672Z" fill="white"/>
<path d="M505.652 291.98C505.355 291.98 505.08 291.768 505.017 291.451L488.69 189.981C488.627 189.642 488.86 189.304 489.22 189.261C489.558 189.198 489.897 189.431 489.94 189.791L506.266 291.26C506.33 291.599 506.097 291.938 505.737 291.98C505.715 291.98 505.694 291.98 505.652 291.98Z" fill="white"/>
<path d="M507.876 312.642C507.812 312.642 507.77 312.642 507.706 312.621L411.357 285.142C411.019 285.036 410.828 284.697 410.913 284.358C411.019 284.02 411.357 283.829 411.696 283.914L508.045 311.393C508.384 311.499 508.574 311.838 508.49 312.176C508.405 312.452 508.151 312.642 507.876 312.642Z" fill="white"/>
<path d="M416.736 142.517V156.743L441.85 156.531V131.423L416.736 142.517Z" fill="#A0505A"/>
<path d="M443.883 127.041V127.422C443.883 131.233 441.003 134.324 437.192 134.324H435.709C434.756 138.092 426.286 142.496 420.272 142.496H413.263C405.598 142.496 399.732 135.615 400.981 128.036L401.32 125.983L399.245 124.818C398.059 124.141 397.72 122.595 398.546 121.495L403.035 115.567L404.01 109.724C404.793 104.918 407.948 101.002 412.141 99.0751C413.793 117.684 430.225 119.886 434.566 120.14H436.98C440.791 120.14 443.883 123.231 443.883 127.041Z" fill="#A0505A"/>
<path d="M432.766 129.497C432.406 129.497 432.131 129.222 432.131 128.862C432.131 125.517 434.862 122.786 438.208 122.786C438.568 122.786 438.843 123.061 438.843 123.421C438.843 123.781 438.568 124.056 438.208 124.056C435.561 124.056 433.401 126.216 433.401 128.862C433.401 129.222 433.126 129.497 432.766 129.497Z" fill="#73325A"/>
<path d="M409.812 120.33C410.408 120.33 410.892 119.212 410.892 117.832C410.892 116.452 410.408 115.334 409.812 115.334C409.215 115.334 408.732 116.452 408.732 117.832C408.732 119.212 409.215 120.33 409.812 120.33Z" fill="#73325A"/>
<path d="M414.216 114.678C414.025 114.678 413.835 114.593 413.708 114.424C410.891 110.528 408.266 110.74 408.223 110.74C407.863 110.782 407.567 110.528 407.525 110.168C407.482 109.83 407.736 109.512 408.096 109.47C408.223 109.449 411.484 109.195 414.724 113.661C414.936 113.937 414.872 114.339 414.576 114.551C414.47 114.635 414.343 114.678 414.216 114.678Z" fill="#73325A"/>
<path d="M434.566 120.14H436.98C440.792 120.14 443.883 123.231 443.883 127.041V127.422C443.883 131.233 441.003 134.324 437.192 134.324L435.561 135.467C428.7 139.871 419.214 157.188 421.543 169.446C424.169 183.228 436.175 186.297 447.271 184.18C458.367 182.063 466.456 175.606 463.831 161.803C463.534 160.173 463.047 158.543 462.433 156.934C462.624 156.998 462.793 157.061 462.984 157.125C476.324 160.766 491.994 161.189 496.314 150.773C500.634 140.358 499.66 130.048 486.679 124.67C479.141 121.537 468.892 121.558 460.951 123.718C464.953 109.809 457.838 94.3331 444.773 92.7877C424.253 90.3531 412.48 98.8213 412.162 99.0541C412.141 101.51 413.814 118.933 434.566 120.14Z" fill="#73325A"/>
<path d="M462.984 157.781C462.687 157.781 462.412 157.569 462.369 157.273C460.125 145.523 450.511 139.045 450.405 138.981C450.236 138.876 450.13 138.664 450.13 138.452C450.13 138.24 450.236 138.05 450.405 137.923C456.97 133.287 459.807 126.597 460.908 123.04C461.014 122.701 461.374 122.511 461.692 122.617C462.031 122.723 462.221 123.082 462.115 123.4C461.014 126.999 458.219 133.604 451.845 138.431C454.238 140.23 461.628 146.539 463.619 157.019C463.682 157.357 463.449 157.696 463.111 157.76C463.068 157.781 463.026 157.781 462.984 157.781Z" fill="white"/>
<path d="M467.24 123.4H461.629C461.269 123.4 460.993 123.125 460.993 122.765V117.155C460.993 113.873 463.662 111.206 466.944 111.206H467.24C470.523 111.206 473.191 113.873 473.191 117.155V117.451C473.212 119.018 472.598 120.521 471.475 121.643C470.353 122.765 468.85 123.4 467.24 123.4ZM462.264 122.13H467.24C468.511 122.13 469.675 121.643 470.565 120.732C471.433 119.843 471.92 118.679 471.92 117.451V117.155C471.92 114.572 469.824 112.476 467.24 112.476H466.944C464.36 112.476 462.264 114.572 462.264 117.155V122.13Z" fill="#FE5244"/>
<path d="M470.374 131.995C468.108 131.995 465.927 130.894 464.635 128.862L461.035 123.146C460.845 122.849 460.93 122.447 461.226 122.278L466.943 118.679C468.468 117.726 470.289 117.409 472.047 117.811C473.804 118.213 475.308 119.272 476.282 120.796L476.621 121.325C477.595 122.849 477.891 124.67 477.489 126.427C477.087 128.184 476.028 129.688 474.503 130.661L473.974 131C472.873 131.656 471.623 131.995 470.374 131.995ZM462.454 122.998L465.715 128.184C467.325 130.725 470.734 131.487 473.317 129.878L473.847 129.539C475.096 128.756 475.943 127.549 476.261 126.11C476.578 124.67 476.324 123.209 475.541 121.96L475.202 121.431C474.418 120.182 473.211 119.335 471.771 119.018C470.332 118.7 468.87 118.954 467.621 119.737L462.454 122.998Z" fill="#FE5244"/>
<path d="M435.688 148.932C435.54 148.932 435.392 148.932 435.243 148.91C433.655 148.783 432.215 148.064 431.178 146.857L430.987 146.624C429.949 145.439 429.441 143.914 429.547 142.348C429.653 140.76 430.373 139.299 431.58 138.262L435.561 134.451C435.688 134.324 435.857 134.261 436.027 134.282C436.196 134.282 436.366 134.366 436.472 134.493L440.389 138.918C441.427 140.125 441.956 141.67 441.829 143.258C441.702 144.846 440.982 146.285 439.775 147.323L439.521 147.513C438.483 148.424 437.128 148.932 435.688 148.932ZM435.985 135.806L432.469 139.172L432.448 139.193C431.495 140.019 430.924 141.162 430.839 142.432C430.754 143.681 431.157 144.867 431.961 145.798C431.961 145.798 431.961 145.82 431.982 145.82L432.173 146.052C432.978 146.984 434.1 147.556 435.349 147.661C436.599 147.746 437.806 147.344 438.758 146.539L439.013 146.328C439.944 145.523 440.516 144.401 440.622 143.152C440.707 141.903 440.304 140.696 439.5 139.744L435.985 135.806Z" fill="#FE5244"/>
<path d="M443.798 146.603C440.834 146.603 438.102 144.634 437.255 141.649L435.455 135.15C435.371 134.811 435.561 134.472 435.9 134.366L442.401 132.567C444.137 132.08 445.958 132.313 447.525 133.181C449.092 134.07 450.236 135.51 450.723 137.246L450.892 137.86C451.379 139.596 451.146 141.416 450.278 142.983C449.389 144.549 447.949 145.693 446.212 146.18L445.598 146.349C444.984 146.539 444.391 146.603 443.798 146.603ZM438.483 141.31C439.309 144.211 442.337 145.947 445.238 145.142L445.852 144.973C447.271 144.571 448.436 143.66 449.156 142.39C449.876 141.12 450.045 139.638 449.664 138.219L449.495 137.606C449.092 136.187 448.182 135.023 446.911 134.303C445.641 133.583 444.158 133.414 442.74 133.795L436.853 135.425L438.483 141.31Z" fill="#FE5244"/>
<path d="M343.193 550.344C343.151 550.344 343.108 550.344 343.066 550.323C342.727 550.259 342.494 549.921 342.579 549.561L379.467 376.958C379.53 376.62 379.869 376.387 380.229 376.471C380.568 376.535 380.801 376.874 380.716 377.234L343.807 549.836C343.743 550.132 343.489 550.344 343.193 550.344Z" fill="#FFCF2D"/>
<path d="M511.369 550.344C511.073 550.344 510.819 550.132 510.755 549.836L473.867 377.234C473.804 376.895 474.016 376.556 474.354 376.471C474.693 376.408 475.032 376.62 475.117 376.958L512.004 549.561C512.068 549.899 511.856 550.238 511.517 550.323C511.454 550.344 511.411 550.344 511.369 550.344Z" fill="#FFCF2D"/>
<path d="M502.688 512.025H351.367C351.007 512.025 350.732 511.75 350.732 511.39C350.732 511.03 351.007 510.755 351.367 510.755H502.688C503.048 510.755 503.323 511.03 503.323 511.39C503.323 511.75 503.048 512.025 502.688 512.025Z" fill="#FFCF2D"/>
<path d="M503.513 377.106H351.028C349.101 377.106 347.534 375.54 347.534 373.613V364.319C347.534 362.393 349.101 360.826 351.028 360.826H503.513C505.44 360.826 507.007 362.393 507.007 364.319V373.613C507.007 375.54 505.44 377.106 503.513 377.106Z" fill="white"/>
<path d="M503.513 377.741H351.028C348.741 377.741 346.898 375.9 346.898 373.613V364.319C346.898 362.033 348.741 360.191 351.028 360.191H503.513C505.8 360.191 507.642 362.033 507.642 364.319V373.613C507.642 375.9 505.8 377.741 503.513 377.741ZM351.028 361.461C349.461 361.461 348.169 362.753 348.169 364.319V373.613C348.169 375.18 349.461 376.471 351.028 376.471H503.513C505.08 376.471 506.372 375.18 506.372 373.613V364.319C506.372 362.753 505.08 361.461 503.513 361.461H351.028Z" fill="#66B0F0"/>
</svg>
